<?xml version="1.0" standalone="no"?><!DOCTYPE svg PUBLIC "-//W3C//DTD SVG 1.1//EN" "http://www.w3.org/Graphics/SVG/1.1/DTD/svg11.dtd"><svg t="1580648584710" class="icon" viewBox="0 0 1024 1024" version="1.1" xmlns="http://www.w3.org/2000/svg" p-id="14666" xmlns:xlink="http://www.w3.org/1999/xlink" width="128" height="128"><defs><style type="text/css"></style></defs><path d="M512 0C230.4 0 0 230.4 0 512s230.4 512 512 512 512-230.4 512-512S793.6 0 512 0z m204.8 563.2h-153.6v153.6c0 30.72-20.48 51.2-51.2 51.2s-51.2-20.48-51.2-51.2v-153.6H307.2c-30.72 0-51.2-20.48-51.2-51.2s20.48-51.2 51.2-51.2h153.6V307.2c0-30.72 20.48-51.2 51.2-51.2s51.2 20.48 51.2 51.2v153.6h153.6c30.72 0 51.2 20.48 51.2 51.2s-20.48 51.2-51.2 51.2z" fill="#ffffff" p-id="14667"></path></svg>