<?xml version="1.0" standalone="no"?><!DOCTYPE svg PUBLIC "-//W3C//DTD SVG 1.1//EN" "http://www.w3.org/Graphics/SVG/1.1/DTD/svg11.dtd"><svg t="1580648317154" class="icon" viewBox="0 0 1024 1024" version="1.1" xmlns="http://www.w3.org/2000/svg" p-id="4247" xmlns:xlink="http://www.w3.org/1999/xlink" width="128" height="128"><defs><style type="text/css"></style></defs><path d="M916.48 493.517l-159.795 155.75 37.734 220.16a57.19 57.19 0 0 1-83.097 60.365L513.536 825.754l-197.53 103.833a57.242 57.242 0 0 1-83.046-60.365l37.683-220.16-159.795-155.545a57.293 57.293 0 0 1 31.744-97.69l220.928-32.051 98.662-199.936a56.832 56.832 0 0 1 51.2-31.898 56.832 56.832 0 0 1 51.2 31.898l98.765 200.14 220.826 32.052a57.293 57.293 0 0 1 32.307 97.485z" p-id="4248" fill="#ffffff"></path></svg>