<?xml version="1.0" standalone="no"?><!DOCTYPE svg PUBLIC "-//W3C//DTD SVG 1.1//EN" "http://www.w3.org/Graphics/SVG/1.1/DTD/svg11.dtd"><svg t="1580537470646" class="icon" viewBox="0 0 1024 1024" version="1.1" xmlns="http://www.w3.org/2000/svg" p-id="1179" xmlns:xlink="http://www.w3.org/1999/xlink" width="128" height="128"><defs><style type="text/css"></style></defs><path d="M712.8 704c-14.1 0-25.5-11.4-25.5-25.5s11.4-25.5 25.5-25.5c79.2 0 146.1-68.6 146.1-149.8 0-81.2-66.9-149.8-146.1-149.8-2.5 0-5.2 0.1-8.2 0.2l-15.9 0.9-7.8-13.8c-36.3-64.4-104.6-104.4-178.4-104.4-98.5 0-183.1 70.2-201.1 166.9l-3.9 20.9-21.3-0.1h-0.8c-59.9 0.2-110.4 52.5-110.4 114.5S216 653 276.3 653c14.1 0 25.5 11.4 25.5 25.5S290.5 704 276.4 704c-43.2 0-84-17.6-115-49.5-30.6-31.5-47.4-72.7-47.4-116s16.7-84.5 47.1-115.9c26-27 59-43.7 94.6-48.3 29.7-110.7 130.5-189.1 246.9-189.1 46.2 0 91.5 12.5 130.9 36 33.8 20.2 62.6 48.1 84 81.1 50.8 1.2 98.6 22.4 135 59.8 37.1 38.2 57.5 88.2 57.5 141s-20.4 102.8-57.5 141C815 682.7 765.4 704 712.8 704z" fill="#9EB5C6" p-id="1180"></path><path d="M820.2 538.9c-0.4 0-0.9 0-1.3-0.1-9.4-0.7-16.4-8.9-15.7-18.3 2-26.5-6.6-53.7-23.8-74.7-17.4-21.3-41.4-34.1-67.5-36.1-1.7-0.1-3.5-0.2-5.5-0.3-6.6-0.2-12.6-4.1-15.3-10.2-3.8-8.6 0.1-18.7 8.6-22.5 2.9-1.3 5.9-1.7 8.9-1.4 2.1 0.1 4 0.2 5.9 0.3 35.5 2.7 67.9 20 91.3 48.5 22.6 27.7 34.1 63.7 31.4 98.9-0.8 9.1-8.2 15.9-17 15.9z" fill="#AEC5D3" p-id="1181"></path><path d="M384.5 595.3l-45.3 58.9c-5.2 7.6-2.3 19.3 6.7 26.5 8.9 7.3 20.7 7.5 26.7 0.6l45.3-58.9c5.4-7.5 2.6-19.4-6.5-26.8-9.1-7.3-21-7.4-26.9-0.3zM476.1 595.3l-45.3 58.9c-5.2 7.6-2.3 19.3 6.7 26.5 8.9 7.3 20.7 7.5 26.7 0.6l45.3-58.9c5.4-7.5 2.6-19.4-6.5-26.8-9.1-7.3-21-7.4-26.9-0.3zM567.7 595.3l-45.3 58.9c-5.2 7.6-2.3 19.3 6.7 26.5 8.9 7.3 20.7 7.5 26.7 0.6l45.3-58.9c5.4-7.5 2.6-19.4-6.5-26.8-9.1-7.3-21-7.4-26.9-0.3zM659.3 595.3L614 654.2c-5.2 7.6-2.3 19.3 6.7 26.5 8.9 7.3 20.7 7.5 26.7 0.6l45.3-58.9c5.4-7.5 2.6-19.4-6.5-26.8-9.1-7.3-21-7.4-26.9-0.3zM343.7 722.3l-45.3 58.9c-5.2 7.6-2.3 19.3 6.7 26.5 8.9 7.3 20.7 7.5 26.7 0.6l45.3-58.9c5.4-7.5 2.6-19.4-6.5-26.8-9.1-7.4-21-7.5-26.9-0.3zM435.3 722.3L390 781.2c-5.2 7.6-2.3 19.3 6.7 26.5 8.9 7.3 20.7 7.5 26.7 0.6l45.3-58.9c5.4-7.5 2.6-19.4-6.5-26.8-9.1-7.4-21-7.5-26.9-0.3zM526.9 722.3l-45.3 58.9c-5.2 7.6-2.3 19.3 6.7 26.5 8.9 7.3 20.7 7.5 26.7 0.6l45.3-58.9c5.4-7.5 2.6-19.4-6.5-26.8-9.1-7.4-21-7.5-26.9-0.3zM618.5 722.3l-45.3 58.9c-5.2 7.6-2.3 19.3 6.7 26.5 8.9 7.3 20.7 7.5 26.7 0.6l45.3-58.9c5.4-7.5 2.6-19.4-6.5-26.8-9.1-7.4-21-7.5-26.9-0.3z" fill="#43A3FB" p-id="1182"></path></svg>