<?xml version="1.0" standalone="no"?><!DOCTYPE svg PUBLIC "-//W3C//DTD SVG 1.1//EN" "http://www.w3.org/Graphics/SVG/1.1/DTD/svg11.dtd"><svg t="1580537497780" class="icon" viewBox="0 0 1024 1024" version="1.1" xmlns="http://www.w3.org/2000/svg" p-id="1327" xmlns:xlink="http://www.w3.org/1999/xlink" width="128" height="128"><defs><style type="text/css"></style></defs><path d="M424.9 671h-18.3v-18.3c0-5.1-4.1-9.2-9.2-9.2s-9.2 4.1-9.2 9.2V671h-18.3c-5.1 0-9.2 4.1-9.2 9.2s4.1 9.2 9.2 9.2h18.3v18.3c0 5.1 4.1 9.2 9.2 9.2s9.2-4.1 9.2-9.2v-18.3h18.3c5.1 0 9.2-4.1 9.2-9.2-0.1-5.1-4.2-9.2-9.2-9.2zM526.9 671h-18.3v-18.3c0-5.1-4.1-9.2-9.2-9.2s-9.2 4.1-9.2 9.2V671h-18.3c-5.1 0-9.2 4.1-9.2 9.2s4.1 9.2 9.2 9.2h18.3v18.3c0 5.1 4.1 9.2 9.2 9.2s9.2-4.1 9.2-9.2v-18.3h18.3c5.1 0 9.2-4.1 9.2-9.2-0.1-5.1-4.2-9.2-9.2-9.2zM628.8 671h-18.3v-18.3c0-5.1-4.1-9.2-9.2-9.2s-9.2 4.1-9.2 9.2V671h-18.3c-5.1 0-9.2 4.1-9.2 9.2s4.1 9.2 9.2 9.2h18.3v18.3c0 5.1 4.1 9.2 9.2 9.2s9.2-4.1 9.2-9.2v-18.3h18.3c5.1 0 9.2-4.1 9.2-9.2s-4.1-9.2-9.2-9.2z" fill="#43A3FB" p-id="1328"></path><path d="M475.9 763h-18.3v-18.3c0-5.1-4.1-9.2-9.2-9.2s-9.2 4.1-9.2 9.2V763h-18.3c-5.1 0-9.2 4.1-9.2 9.2s4.1 9.2 9.2 9.2h18.3v18.3c0 5.1 4.1 9.2 9.2 9.2s9.2-4.1 9.2-9.2v-18.3h18.3c5.1 0 9.2-4.1 9.2-9.2s-4.2-9.2-9.2-9.2zM577.8 763h-18.3v-18.3c0-5.1-4.1-9.2-9.2-9.2s-9.2 4.1-9.2 9.2V763h-18.3c-5.1 0-9.2 4.1-9.2 9.2s4.1 9.2 9.2 9.2h18.3v18.3c0 5.1 4.1 9.2 9.2 9.2s9.2-4.1 9.2-9.2v-18.3h18.3c5.1 0 9.2-4.1 9.2-9.2s-4.1-9.2-9.2-9.2z" fill="#43A3FB" p-id="1329"></path><path d="M711.7 705.9c-14 0-25.4-11.4-25.4-25.4s11.4-25.4 25.4-25.4c78.8 0 145.3-68.2 145.3-149s-66.5-149-145.3-149c-2.5 0-5.2 0.1-8.1 0.2l-15.8 0.9-7.8-13.8c-36-64-104-103.8-177.4-103.8-98 0-182.1 69.8-200 166l-3.9 20.8-21.2-0.1h-0.8c-59.6 0.2-109.8 52.3-109.8 113.9 0 61.7 50.7 113.9 110.7 113.9 14 0 25.4 11.4 25.4 25.4s-11.4 25.4-25.4 25.4c-43 0-83.6-17.5-114.4-49.3-30.4-31.4-47.1-72.3-47.1-115.4 0-43 16.6-84 46.8-115.3 25.8-26.8 58.7-43.5 94.1-48 29.6-110.1 129.8-188.1 245.6-188.1 45.9 0 91 12.4 130.2 35.9 33.7 20.1 62.3 47.8 83.5 80.7 50.6 1.2 98.1 22.2 134.3 59.5 36.9 38 57.2 87.8 57.2 140.3s-20.3 102.3-57.2 140.3c-37.2 38.3-86.6 59.4-138.9 59.4z" fill="#9EB5C6" p-id="1330"></path><path d="M817.8 541.7c-0.4 0-0.9 0-1.3-0.1-9.3-0.7-16.3-8.9-15.6-18.2 4.3-55.6-37.3-106.1-90.8-110.2-1.7-0.1-3.5-0.2-5.5-0.3-6.5-0.1-12.3-3.9-15.1-9.8-4-8.5-0.3-18.6 8.1-22.5 3-1.4 6.1-1.8 9.1-1.5 2 0.1 4 0.2 5.9 0.3 35.3 2.7 67.6 19.8 90.8 48.3 22.5 27.5 33.9 63.4 31.2 98.3-0.6 8.9-8 15.7-16.8 15.7zM715.1 382.4c2.1 1.6 3.8 3.6 5 6.2-1.2-2.5-2.9-4.6-5-6.2z" fill="#AEC5D3" p-id="1331"></path></svg>